<svg xmlns="http://www.w3.org/2000/svg" viewBox="0 0 1200 720" role="img" aria-labelledby="title desc">
  <title id="title">Deplai project art</title>
  <desc id="desc">Futuristic deployment control room artwork for the Deplai project.</desc>
  <defs>
    <linearGradient id="bg" x1="0%" y1="0%" x2="100%" y2="100%">
      <stop offset="0%" stop-color="#040404" />
      <stop offset="55%" stop-color="#0a0d12" />
      <stop offset="100%" stop-color="#11161d" />
    </linearGradient>
    <linearGradient id="panel" x1="0%" y1="0%" x2="100%" y2="100%">
      <stop offset="0%" stop-color="#0c1219" />
      <stop offset="100%" stop-color="#0a0e14" />
    </linearGradient>
    <linearGradient id="accent" x1="0%" y1="0%" x2="100%" y2="0%">
      <stop offset="0%" stop-color="#ff8a1e" />
      <stop offset="55%" stop-color="#ffb347" />
      <stop offset="100%" stop-color="#ffd28a" />
    </linearGradient>
    <filter id="glow" x="-20%" y="-20%" width="140%" height="140%">
      <feGaussianBlur stdDeviation="14" result="blur" />
      <feMerge>
        <feMergeNode in="blur" />
        <feMergeNode in="SourceGraphic" />
      </feMerge>
    </filter>
  </defs>
  <rect width="1200" height="720" fill="url(#bg)" />
  <g opacity="0.06" stroke="#fff">
    <path d="M0 120h1200M0 240h1200M0 360h1200M0 480h1200M0 600h1200" />
    <path d="M120 0v720M240 0v720M360 0v720M480 0v720M600 0v720M720 0v720M840 0v720M960 0v720M1080 0v720" />
  </g>
  <circle cx="186" cy="124" r="160" fill="#ff9d3f" opacity="0.08" filter="url(#glow)" />
  <circle cx="1016" cy="548" r="190" fill="#ffd28a" opacity="0.06" filter="url(#glow)" />
  <rect x="78" y="78" width="1044" height="564" rx="28" fill="none" stroke="#fff" stroke-opacity="0.14" />
  <rect x="126" y="128" width="948" height="332" rx="24" fill="url(#panel)" stroke="#fff" stroke-opacity="0.09" />
  <rect x="166" y="174" width="234" height="86" rx="18" fill="#0b0f15" stroke="#fff" stroke-opacity="0.08" />
  <rect x="486" y="174" width="228" height="86" rx="18" fill="#0b0f15" stroke="#fff" stroke-opacity="0.08" />
  <rect x="804" y="174" width="228" height="86" rx="18" fill="#0b0f15" stroke="#fff" stroke-opacity="0.08" />
  <text x="190" y="208" font-family="Consolas, monospace" font-size="18" fill="#828b96">repo scan</text>
  <text x="508" y="208" font-family="Consolas, monospace" font-size="18" fill="#828b96">plan graph</text>
  <text x="826" y="208" font-family="Consolas, monospace" font-size="18" fill="#828b96">apply infra</text>
  <rect x="190" y="222" width="136" height="8" rx="4" fill="#fff" fill-opacity="0.11" />
  <rect x="508" y="222" width="116" height="8" rx="4" fill="#fff" fill-opacity="0.11" />
  <rect x="826" y="222" width="102" height="8" rx="4" fill="#fff" fill-opacity="0.11" />
  <path d="M400 217h72M714 217h90" stroke="url(#accent)" stroke-width="8" stroke-linecap="round" />
  <path d="M472 217l20 -20M472 217l20 20M804 217l20 -20M804 217l20 20" stroke="url(#accent)" stroke-width="8" stroke-linecap="round" stroke-linejoin="round" />
  <g filter="url(#glow)">
    <path d="M202 318c44 0 44 -48 88 -48s44 48 88 48 44 -48 88 -48 44 48 88 48 44 -48 88 -48 44 48 88 48" fill="none" stroke="url(#accent)" stroke-width="7" stroke-linecap="round" />
  </g>
  <g fill="#0b0f15" stroke="#fff" stroke-opacity="0.08">
    <rect x="162" y="358" width="186" height="62" rx="14" />
    <rect x="374" y="358" width="214" height="62" rx="14" />
    <rect x="612" y="358" width="198" height="62" rx="14" />
    <rect x="836" y="358" width="196" height="62" rx="14" />
  </g>
  <g font-family="Consolas, monospace" font-size="18">
    <text x="186" y="395" fill="#fff">docker build</text>
    <text x="398" y="395" fill="#fff">terraform validate</text>
    <text x="636" y="395" fill="#fff">policy checks</text>
    <text x="860" y="395" fill="#fff">deploy green</text>
  </g>
  <g fill="#ffb347">
    <circle cx="316" cy="389" r="6" />
    <circle cx="557" cy="389" r="6" />
    <circle cx="771" cy="389" r="6" />
    <circle cx="992" cy="389" r="6" />
  </g>
  <text x="150" y="548" font-family="Segoe UI, Arial, sans-serif" font-size="64" font-weight="700" fill="#ffffff">DEPLAI</text>
  <text x="150" y="592" font-family="Consolas, monospace" font-size="24" letter-spacing="4" fill="#ffbf73">MULTI AGENT DEVSECOPS ORCHESTRATION</text>
  <text x="150" y="628" font-family="Segoe UI, Arial, sans-serif" font-size="24" fill="#8b949e">Repository analysis, Terraform planning, and automated cloud delivery</text>
</svg>
